<svg xmlns="http://www.w3.org/2000/svg" viewBox="0 0 1024 1024" xmlns:xlink="http://www.w3.org/1999/xlink" style="width: 15px; height: 15px;"><path d="M573.4 686.1L432.1 582.7l48.1-66.6 108.5 78.8 236.5-324.6-144.4-105.5-94.2 130 32.8 23.6-48.1 66.6-66.6-48.1-8.2-57.3L639 84l57.3-9.2 209.9 152.6 9.2 57.3-284.7 392.2z" fill="#437DFF"></path><path d="M327.7 949.2L117.8 796.7l-9.2-57.3 284.7-392.2L450.6 337.9l141.3 103.4-48.1 66.6-108.5-78.8-236.5 324.6 144.4 105.5 94.2-130-32.8-23.6 48.1-66.6 66.6 48.1 8.2 57.3-142.3 195.6z" fill="#d4237a"></path></svg>